# xmcd
#
# Track frame offsets: 
#        150
#        32471
#        63494
#        110176
#        134809
#        159827
#        189411
#        226029
#
# Disc length: 3390 seconds
#
# Revision: 2
# Processed by: cddbd v1.5.2PL0 Copyright (c) Steve Scherf et al.
# Submitted via: ExactAudioCopy v0.99pb5
#
DISCID=650d3c08
DTITLE=Iiro Rantala - Michael Wollny - Leszek Mozdzer - Jazz at Berlin
DTITLE=Philharmonic I
DYEAR=2013
DGENRE=Jazz
TTITLE0=Iiro Rantala - Aria and Goldberg Variation
TTITLE1=Iiro Rantala, Michael Wollny - Tears for Esbjörn
TTITLE2=Michael Wollny - Hexentanz
TTITLE3=Leszek Mozdzer - No Message
TTITLE4=Leszek Mozdzer - Incognitor
TTITLE5=Michael Wollny - Leszek Mozdzer - Svantetic
TTITLE6=Iiro Rantala, Leszek Mozdzer - Suffering
TTITLE7=Iiro Rantala, Michael Wollny, Leszek Mozdzer - Armando's Rumba
EXTD=YEAR: 2013
EXTT0=
EXTT1=
EXTT2=
EXTT3=
EXTT4=
EXTT5=
EXTT6=
EXTT7=
PLAYORDER=
